# xmcd
#
# Track frame offsets: 
#        150
#        15105
#        34340
#        55096
#
# Disc length: 874 seconds
#
# Revision: 0
# Processed by: cddbd v1.5.1PL0 Copyright (c) Steve Scherf et al.
# Submitted via: ExactAudioCopy v0.95a5
#
DISCID=23036804
DTITLE=Cotton Green - Nobody Knows
DYEAR=2002
DGENRE=Bluegrass
TTITLE0=Love of my Life
TTITLE1=Secrets
TTITLE2=Springtime
TTITLE3=Nobody Knows
EXTD=
EXTT0=
EXTT1=
EXTT2=
EXTT3=
PLAYORDER=
